<svg width="68" height="68" viewBox="0 0 68 68" fill="none" xmlns="http://www.w3.org/2000/svg">
<path d="M62.3346 21.3491V48.1666C62.3348 50.3347 61.5064 52.4209 60.019 53.9984C58.5316 55.5758 56.4977 56.5253 54.3333 56.6525L53.8346 56.6666H14.168C11.9999 56.6667 9.91368 55.8384 8.33623 54.351C6.75878 52.8636 5.80933 50.8297 5.68214 48.6653L5.66797 48.1666V21.3491L32.4288 39.1906L32.7575 39.3776C33.1448 39.5669 33.5702 39.6652 34.0013 39.6652C34.4324 39.6652 34.8578 39.5669 35.2451 39.3776L35.5738 39.1906L62.3346 21.3491Z" fill="white"/>
<path d="M53.8355 11.3335C56.8955 11.3335 59.5787 12.9485 61.0747 15.3767L34.0022 33.425L6.92969 15.3767C7.64027 14.223 8.61634 13.2559 9.77654 12.556C10.9367 11.8562 12.2474 11.4438 13.5994 11.3533L14.1689 11.3335H53.8355Z" fill="white"/>
</svg>
