<svg width="46" height="46" viewBox="0 0 46 46" fill="none" xmlns="http://www.w3.org/2000/svg">
<path fill-rule="evenodd" clip-rule="evenodd" d="M24.435 5.74801C24.8162 5.74801 25.1818 5.89946 25.4514 6.16903C25.721 6.43861 25.8724 6.80423 25.8724 7.18547V38.8095C25.8724 39.1908 25.721 39.5564 25.4514 39.826C25.1818 40.0956 24.8162 40.247 24.435 40.247C24.0537 40.247 23.6881 40.0956 23.4185 39.826C23.1489 39.5564 22.9975 39.1908 22.9975 38.8095V7.18547C22.9975 6.80423 23.1489 6.43861 23.4185 6.16903C23.6881 5.89946 24.0537 5.74801 24.435 5.74801ZM18.6851 11.4978C19.0664 11.4978 19.432 11.6493 19.7016 11.9189C19.9711 12.1884 20.1226 12.5541 20.1226 12.9353V33.0597C20.1226 33.4409 19.9711 33.8066 19.7016 34.0761C19.432 34.3457 19.0664 34.4972 18.6851 34.4972C18.3039 34.4972 17.9383 34.3457 17.6687 34.0761C17.3991 33.8066 17.2477 33.4409 17.2477 33.0597V12.9353C17.2477 12.5541 17.3991 12.1884 17.6687 11.9189C17.9383 11.6493 18.3039 11.4978 18.6851 11.4978ZM30.1848 11.4978C30.566 11.4978 30.9317 11.6493 31.2012 11.9189C31.4708 12.1884 31.6222 12.5541 31.6222 12.9353V33.0597C31.6222 33.4409 31.4708 33.8066 31.2012 34.0761C30.9317 34.3457 30.566 34.4972 30.1848 34.4972C29.8036 34.4972 29.4379 34.3457 29.1684 34.0761C28.8988 33.8066 28.7473 33.4409 28.7473 33.0597V12.9353C28.7473 12.5541 28.8988 12.1884 29.1684 11.9189C29.4379 11.6493 29.8036 11.4978 30.1848 11.4978ZM12.9353 15.8102C13.3165 15.8102 13.6822 15.9617 13.9517 16.2312C14.2213 16.5008 14.3728 16.8664 14.3728 17.2477V28.7473C14.3728 29.1286 14.2213 29.4942 13.9517 29.7638C13.6822 30.0333 13.3165 30.1848 12.9353 30.1848C12.5541 30.1848 12.1884 30.0333 11.9189 29.7638C11.6493 29.4942 11.4978 29.1286 11.4978 28.7473V17.2477C11.4978 16.8664 11.6493 16.5008 11.9189 16.2312C12.1884 15.9617 12.5541 15.8102 12.9353 15.8102ZM35.9346 15.8102C36.3159 15.8102 36.6815 15.9617 36.9511 16.2312C37.2206 16.5008 37.3721 16.8664 37.3721 17.2477V28.7473C37.3721 29.1286 37.2206 29.4942 36.9511 29.7638C36.6815 30.0333 36.3159 30.1848 35.9346 30.1848C35.5534 30.1848 35.1878 30.0333 34.9182 29.7638C34.6486 29.4942 34.4972 29.1286 34.4972 28.7473V17.2477C34.4972 16.8664 34.6486 16.5008 34.9182 16.2312C35.1878 15.9617 35.5534 15.8102 35.9346 15.8102ZM7.18547 18.6851C7.56671 18.6851 7.93233 18.8366 8.20191 19.1062C8.47148 19.3757 8.62293 19.7414 8.62293 20.1226V25.8724C8.62293 26.2537 8.47148 26.6193 8.20191 26.8889C7.93233 27.1584 7.56671 27.3099 7.18547 27.3099C6.80423 27.3099 6.43861 27.1584 6.16903 26.8889C5.89946 26.6193 5.74801 26.2537 5.74801 25.8724V20.1226C5.74801 19.7414 5.89946 19.3757 6.16903 19.1062C6.43861 18.8366 6.80423 18.6851 7.18547 18.6851ZM41.6845 18.6851C42.0657 18.6851 42.4313 18.8366 42.7009 19.1062C42.9705 19.3757 43.1219 19.7414 43.1219 20.1226V25.8724C43.1219 26.2537 42.9705 26.6193 42.7009 26.8889C42.4313 27.1584 42.0657 27.3099 41.6845 27.3099C41.3032 27.3099 40.9376 27.1584 40.668 26.8889C40.3984 26.6193 40.247 26.2537 40.247 25.8724V20.1226C40.247 19.7414 40.3984 19.3757 40.668 19.1062C40.9376 18.8366 41.3032 18.6851 41.6845 18.6851Z" fill="#006BF9"/>
</svg>
