<svg width="1142" height="1140" viewBox="0 0 1142 1140" fill="none" xmlns="http://www.w3.org/2000/svg">
<g filter="url(#filter0_f_863_559)">
<ellipse cx="571.001" cy="569.728" rx="142.923" ry="141.651" fill="#001F67"/>
</g>
<g filter="url(#filter1_f_863_559)">
<path d="M678.946 569.729C678.946 510.645 630.619 462.747 571.004 462.747C511.39 462.747 463.062 510.645 463.062 569.729C463.062 628.813 511.39 676.71 571.004 676.71V678.691C510.286 678.691 461.063 629.907 461.063 569.729C461.063 509.55 510.286 460.766 571.004 460.766C631.723 460.766 680.945 509.55 680.945 569.729C680.945 629.907 631.723 678.691 571.004 678.691V676.71C630.619 676.71 678.946 628.813 678.946 569.729Z" fill="#0042FF"/>
</g>
<path d="M678.946 571.71C678.946 512.625 630.619 464.728 571.004 464.728C511.39 464.728 463.062 512.625 463.062 571.71C463.062 630.794 511.39 678.691 571.004 678.691V680.672C510.286 680.672 461.063 631.888 461.063 571.71C461.063 511.531 510.286 462.747 571.004 462.747C631.723 462.747 680.945 511.531 680.945 571.71C680.945 631.888 631.723 680.672 571.004 680.672V678.691C630.619 678.691 678.946 630.794 678.946 571.71Z" fill="#000A5A"/>
<path d="M678.946 569.729C678.946 510.645 630.619 462.747 571.004 462.747C511.39 462.747 463.062 510.645 463.062 569.729C463.062 628.813 511.39 676.71 571.004 676.71V678.691C510.286 678.691 461.063 629.907 461.063 569.729C461.063 509.55 510.286 460.766 571.004 460.766C631.723 460.766 680.945 509.55 680.945 569.729C680.945 629.907 631.723 678.691 571.004 678.691V676.71C630.619 676.71 678.946 628.813 678.946 569.729Z" fill="url(#paint0_linear_863_559)"/>
<path d="M678.946 569.729C678.946 510.645 630.619 462.747 571.004 462.747C511.39 462.747 463.062 510.645 463.062 569.729C463.062 628.813 511.39 676.71 571.004 676.71V678.691C510.286 678.691 461.063 629.907 461.063 569.729C461.063 509.55 510.286 460.766 571.004 460.766C631.723 460.766 680.945 509.55 680.945 569.729C680.945 629.907 631.723 678.691 571.004 678.691V676.71C630.619 676.71 678.946 628.813 678.946 569.729Z" fill="black" fill-opacity="0.2"/>
<defs>
<filter id="filter0_f_863_559" x="-0.000579933" y="-0.000579933" width="1142" height="1139.46" filterUnits="userSpaceOnUse" color-interpolation-filters="sRGB">
<feFlood flood-opacity="0" result="BackgroundImageFix"/>
<feBlend mode="normal" in="SourceGraphic" in2="BackgroundImageFix" result="shape"/>
<feGaussianBlur stdDeviation="214.002" result="effect1_foregroundBlur_863_559"/>
</filter>
<filter id="filter1_f_863_559" x="424.33" y="424.034" width="293.347" height="291.389" filterUnits="userSpaceOnUse" color-interpolation-filters="sRGB">
<feFlood flood-opacity="0" result="BackgroundImageFix"/>
<feBlend mode="normal" in="SourceGraphic" in2="BackgroundImageFix" result="shape"/>
<feGaussianBlur stdDeviation="18.3632" result="effect1_foregroundBlur_863_559"/>
</filter>
<linearGradient id="paint0_linear_863_559" x1="571.004" y1="460.766" x2="571.004" y2="678.691" gradientUnits="userSpaceOnUse">
<stop stop-color="#A9EDFF"/>
<stop offset="0.366413" stop-color="#0059FF"/>
<stop offset="1" stop-color="#002A81"/>
</linearGradient>
</defs>
</svg>
