<svg preserveAspectRatio="none" width="100%" height="100%" overflow="visible" style="display: block;" viewBox="0 0 36.975 173.319" fill="none" xmlns="http://www.w3.org/2000/svg">
<g id="Vector">
<path d="M36.975 89.1352C36.975 91.8701 34.738 94.0872 31.9785 94.0872C29.2191 94.0872 26.9821 91.8701 26.9821 89.1352C26.9821 86.4003 29.2191 84.1832 31.9785 84.1832C34.738 84.1832 36.975 86.4003 36.975 89.1352Z" fill="url(#paint0_linear_0_5)"/>
<path d="M29.9795 54.4721C29.9795 56.113 28.6373 57.4432 26.9816 57.4432C25.326 57.4432 23.9838 56.113 23.9838 54.4721C23.9838 52.8311 25.326 51.5009 26.9816 51.5009C28.6373 51.5009 29.9795 52.8311 29.9795 54.4721Z" fill="url(#paint1_linear_0_5)"/>
<path d="M29.9795 119.838C29.9795 121.479 28.6373 122.809 26.9816 122.809C25.326 122.809 23.9838 121.479 23.9838 119.838C23.9838 118.197 25.326 116.867 26.9816 116.867C28.6373 116.867 29.9795 118.197 29.9795 119.838Z" fill="url(#paint2_linear_0_5)"/>
<path d="M22.9847 24.7596C22.9847 25.8536 22.0899 26.7404 20.9861 26.7404C19.8823 26.7404 18.9875 25.8536 18.9875 24.7596C18.9875 23.6656 19.8823 22.7788 20.9861 22.7788C22.0899 22.7788 22.9847 23.6656 22.9847 24.7596Z" fill="url(#paint3_linear_0_5)"/>
<path d="M22.9847 148.56C22.9847 149.654 22.0899 150.541 20.9861 150.541C19.8823 150.541 18.9875 149.654 18.9875 148.56C18.9875 147.466 19.8823 146.579 20.9861 146.579C22.0899 146.579 22.9847 147.466 22.9847 148.56Z" fill="url(#paint4_linear_0_5)"/>
<path d="M1.99859 0.990398C1.99859 1.53738 1.55119 1.9808 0.999294 1.9808C0.447399 1.9808 0 1.53738 0 0.990398C0 0.443416 0.447399 0 0.999294 0C1.55119 0 1.99859 0.443416 1.99859 0.990398Z" fill="url(#paint5_linear_0_5)"/>
<path d="M1.99859 172.329C1.99859 172.876 1.55119 173.319 0.999294 173.319C0.447399 173.319 0 172.876 0 172.329C0 171.782 0.447399 171.338 0.999294 171.338C1.55119 171.338 1.99859 171.782 1.99859 172.329Z" fill="url(#paint6_linear_0_5)"/>
</g>
<defs>
<linearGradient id="paint0_linear_0_5" x1="1.0032" y1="171.338" x2="1.0032" y2="173.319" gradientUnits="userSpaceOnUse">
<stop stop-color="#467DFE"/>
<stop offset="1" stop-color="#0058F4"/>
</linearGradient>
<linearGradient id="paint1_linear_0_5" x1="1.0032" y1="171.338" x2="1.0032" y2="173.319" gradientUnits="userSpaceOnUse">
<stop stop-color="#467DFE"/>
<stop offset="1" stop-color="#0058F4"/>
</linearGradient>
<linearGradient id="paint2_linear_0_5" x1="1.0032" y1="171.338" x2="1.0032" y2="173.319" gradientUnits="userSpaceOnUse">
<stop stop-color="#467DFE"/>
<stop offset="1" stop-color="#0058F4"/>
</linearGradient>
<linearGradient id="paint3_linear_0_5" x1="1.0032" y1="171.338" x2="1.0032" y2="173.319" gradientUnits="userSpaceOnUse">
<stop stop-color="#467DFE"/>
<stop offset="1" stop-color="#0058F4"/>
</linearGradient>
<linearGradient id="paint4_linear_0_5" x1="1.0032" y1="171.338" x2="1.0032" y2="173.319" gradientUnits="userSpaceOnUse">
<stop stop-color="#467DFE"/>
<stop offset="1" stop-color="#0058F4"/>
</linearGradient>
<linearGradient id="paint5_linear_0_5" x1="1.0032" y1="171.338" x2="1.0032" y2="173.319" gradientUnits="userSpaceOnUse">
<stop stop-color="#467DFE"/>
<stop offset="1" stop-color="#0058F4"/>
</linearGradient>
<linearGradient id="paint6_linear_0_5" x1="1.0032" y1="171.338" x2="1.0032" y2="173.319" gradientUnits="userSpaceOnUse">
<stop stop-color="#467DFE"/>
<stop offset="1" stop-color="#0058F4"/>
</linearGradient>
</defs>
</svg>
