<svg preserveAspectRatio="none" width="100%" height="100%" overflow="visible" style="display: block;" viewBox="0 0 219.845 217.888" fill="none" xmlns="http://www.w3.org/2000/svg">
<g id="Ellipse 18 (Stroke)">
<path d="M217.846 108.944C217.846 49.8698 169.527 1.9808 109.922 1.9808C50.3177 1.9808 1.99859 49.8698 1.99859 108.944C1.99859 168.018 50.3177 215.907 109.922 215.907V217.888C49.2139 217.888 0 169.112 0 108.944C0 48.7758 49.2139 0 109.922 0C170.631 0 219.845 48.7758 219.845 108.944C219.845 169.112 170.631 217.888 109.922 217.888V215.907C169.527 215.907 217.846 168.018 217.846 108.944Z" fill="url(#paint0_linear_0_4)"/>
<path d="M217.846 108.944C217.846 49.8698 169.527 1.9808 109.922 1.9808C50.3177 1.9808 1.99859 49.8698 1.99859 108.944C1.99859 168.018 50.3177 215.907 109.922 215.907V217.888C49.2139 217.888 0 169.112 0 108.944C0 48.7758 49.2139 0 109.922 0C170.631 0 219.845 48.7758 219.845 108.944C219.845 169.112 170.631 217.888 109.922 217.888V215.907C169.527 215.907 217.846 168.018 217.846 108.944Z" fill="var(--fill-1, black)" fill-opacity="0.2"/>
</g>
<defs>
<linearGradient id="paint0_linear_0_4" x1="109.922" y1="0" x2="109.922" y2="217.888" gradientUnits="userSpaceOnUse">
<stop stop-color="#A9EDFF"/>
<stop offset="0.366413" stop-color="#0059FF"/>
<stop offset="1" stop-color="#002A81"/>
</linearGradient>
</defs>
</svg>
