<svg width="37" height="174" viewBox="0 0 37 174" fill="none" xmlns="http://www.w3.org/2000/svg">
<path d="M36.9984 89.1917C36.9984 91.9284 34.76 94.1469 31.9988 94.1469C29.2376 94.1469 26.9992 91.9284 26.9992 89.1917C26.9992 86.4551 29.2376 84.2366 31.9988 84.2366C34.76 84.2366 36.9984 86.4551 36.9984 89.1917Z" fill="url(#paint0_linear_863_637)"/>
<path d="M29.9985 54.5066C29.9985 56.1486 28.6555 57.4797 26.9987 57.4797C25.342 57.4797 23.999 56.1486 23.999 54.5066C23.999 52.8646 25.342 51.5335 26.9987 51.5335C28.6555 51.5335 29.9985 52.8646 29.9985 54.5066Z" fill="url(#paint1_linear_863_637)"/>
<path d="M29.9985 119.914C29.9985 121.556 28.6555 122.887 26.9987 122.887C25.342 122.887 23.999 121.556 23.999 119.914C23.999 118.272 25.342 116.941 26.9987 116.941C28.6555 116.941 29.9985 118.272 29.9985 119.914Z" fill="url(#paint2_linear_863_637)"/>
<path d="M22.9992 24.7753C22.9992 25.87 22.1039 26.7573 20.9994 26.7573C19.8949 26.7573 18.9995 25.87 18.9995 24.7753C18.9995 23.6806 19.8949 22.7932 20.9994 22.7932C22.1039 22.7932 22.9992 23.6806 22.9992 24.7753Z" fill="url(#paint3_linear_863_637)"/>
<path d="M22.9992 148.654C22.9992 149.749 22.1039 150.636 20.9994 150.636C19.8949 150.636 18.9995 149.749 18.9995 148.654C18.9995 147.559 19.8949 146.672 20.9994 146.672C22.1039 146.672 22.9992 147.559 22.9992 148.654Z" fill="url(#paint4_linear_863_637)"/>
<path d="M1.99985 0.991026C1.99985 1.53835 1.55217 1.98205 0.999927 1.98205C0.447683 1.98205 0 1.53835 0 0.991026C0 0.443697 0.447683 0 0.999927 0C1.55217 0 1.99985 0.443697 1.99985 0.991026Z" fill="url(#paint5_linear_863_637)"/>
<path d="M1.99985 172.438C1.99985 172.985 1.55217 173.429 0.999927 173.429C0.447683 173.429 0 172.985 0 172.438C0 171.89 0.447683 171.447 0.999927 171.447C1.55217 171.447 1.99985 171.89 1.99985 172.438Z" fill="url(#paint6_linear_863_637)"/>
<defs>
<linearGradient id="paint0_linear_863_637" x1="1.00384" y1="171.446" x2="1.00384" y2="173.429" gradientUnits="userSpaceOnUse">
<stop stop-color="#467DFE"/>
<stop offset="1" stop-color="#0058F4"/>
</linearGradient>
<linearGradient id="paint1_linear_863_637" x1="1.00384" y1="171.446" x2="1.00384" y2="173.429" gradientUnits="userSpaceOnUse">
<stop stop-color="#467DFE"/>
<stop offset="1" stop-color="#0058F4"/>
</linearGradient>
<linearGradient id="paint2_linear_863_637" x1="1.00384" y1="171.446" x2="1.00384" y2="173.429" gradientUnits="userSpaceOnUse">
<stop stop-color="#467DFE"/>
<stop offset="1" stop-color="#0058F4"/>
</linearGradient>
<linearGradient id="paint3_linear_863_637" x1="1.00384" y1="171.446" x2="1.00384" y2="173.429" gradientUnits="userSpaceOnUse">
<stop stop-color="#467DFE"/>
<stop offset="1" stop-color="#0058F4"/>
</linearGradient>
<linearGradient id="paint4_linear_863_637" x1="1.00384" y1="171.446" x2="1.00384" y2="173.429" gradientUnits="userSpaceOnUse">
<stop stop-color="#467DFE"/>
<stop offset="1" stop-color="#0058F4"/>
</linearGradient>
<linearGradient id="paint5_linear_863_637" x1="1.00384" y1="171.446" x2="1.00384" y2="173.429" gradientUnits="userSpaceOnUse">
<stop stop-color="#467DFE"/>
<stop offset="1" stop-color="#0058F4"/>
</linearGradient>
<linearGradient id="paint6_linear_863_637" x1="1.00384" y1="171.446" x2="1.00384" y2="173.429" gradientUnits="userSpaceOnUse">
<stop stop-color="#467DFE"/>
<stop offset="1" stop-color="#0058F4"/>
</linearGradient>
</defs>
</svg>
